<svg enable-background="new 5.5 -3.5 64 64" height="64" viewBox="5.5 -3.5 64 64" width="64" xmlns="http://www.w3.org/2000/svg"><path d="m31.943359 0c-8.8 0-16.304672 3.1054062-22.5136715 9.3164062-6.285 6.3999998-9.4296875 13.9625468-9.4296875 22.6855468 0 8.763 3.1446875 16.28336 9.4296875 22.568359 6.3610005 6.286001 13.8646715 9.429688 22.5136715 9.429688 8.836 0 16.47511-3.162328 22.91211-9.486328 6.096-6.057 9.144531-13.559672 9.144531-22.513672 0-8.952-3.106453-16.513547-9.314453-22.6855469-6.211-6.21-13.791188-9.3144531-22.742188-9.3144531zm.113282 5.7714844c7.275 0 13.446671 2.5698437 18.513671 7.7148436 5.103 5.028 7.65625 11.200672 7.65625 18.513672.000001 7.353-2.513968 13.46775-7.542968 18.34375-5.295 5.219-11.505907 7.828125-18.628906 7.828125-7.162 0-13.332672-2.589484-18.513672-7.771484-5.1800004-5.143-7.7695316-11.275391-7.7695316-18.400391 0-7.046 2.608125-13.217672 7.8281246-18.513672 5.029-5.1429999 11.181032-7.7148436 18.457032-7.7148436zm-5.083985 8.1132816-8.6875 3.828125v9.029297l.058594.05664-7.658203 3.201172v8.228516l8.171875 3.542968 8.285156-3.427734.572266.228516 16.742187 6.914062.400391.113281.341797-.115234 7.771484-3.314453.572266-.283203v-9.029297l-.628907-.285156-6.341796-2.63086v-7.943359zm2.113282 17.314453 14.685546 6v.230469h.056641v5.654296l-.056641-.054687v.058594l-14.685546-6.058594zm16.113281.34375 4.74414 2-5.144531 2.113281-4.626953-2zm6.34375 3.486328v5.542969l-5.714844 2.457031v-5.599609z" transform="translate(5.5 -3.5)"/></svg>