<svg viewBox="0 0 104.83 20" xmlns="http://www.w3.org/2000/svg" id="Layer_2">
  <defs>
    <style>
      .cls-1 {
        fill: #152bff;
        stroke-width: 0px;
      }
    </style>
  </defs>
  <g id="Layer_1-2">
    <path d="M20.28,4h6.25v16h4.29V4h6.25V0h-16.78v4Z" class="cls-1"></path>
    <path d="M14.29,12.14L2.14,0H0v20h4.29V7.86l12.14,12.14h2.14V0h-4.29v12.14Z" class="cls-1"></path>
    <path d="M58.06,11.86L53.48,0h-2.14l-4.57,11.86-3.86-11.86h-4.43l6.86,20h2.14l4.93-12.43,4.93,12.43h2.14L66.34,0h-4.43l-3.86,11.86Z" class="cls-1"></path>
    <path d="M83.6,6.43c0-3.77-2.88-6.43-7-6.43h-9.14v20h4.29v-8.11l8,8.11h5.71l-7.52-7.52c3.39-.46,5.66-2.71,5.66-6.06ZM79.32,6.43c0,1.49-1.06,2.43-2.71,2.43h-4.86v-4.86h4.86c1.66,0,2.71.94,2.71,2.43Z" class="cls-1"></path>
    <path d="M104.83,20l-10-10L104.83,0h-5.71l-8,8.11V0h-4.29v20h4.29v-8.11l8,8.11h5.71Z" class="cls-1"></path>
  </g>
</svg>